<?xml version="1.0" encoding="utf-8"?>
<!-- Generator: Adobe Illustrator 15.1.0, SVG Export Plug-In . SVG Version: 6.00 Build 0)  -->
<!DOCTYPE svg PUBLIC "-//W3C//DTD SVG 1.1//EN" "http://www.w3.org/Graphics/SVG/1.1/DTD/svg11.dtd">
<svg version="1.1" xmlns="http://www.w3.org/2000/svg" xmlns:xlink="http://www.w3.org/1999/xlink" x="0px" y="0px" width="135px"
	 height="65px" viewBox="0 0 135 65" enable-background="new 0 0 135 65" xml:space="preserve">
<g id="Layer_3">
</g>
<g id="Nápis">
	<polygon fill="#7E4E24" points="54.3,45.7 53.7,34.9 53.3,29.3 53.4,16.5 53.8,2.8 53.8,-6.1 53.7,-10 52.5,-14.2 52.6,-17.4 
		13.3,-12.6 -19.9,17.4 -20.5,73.6 52.4,72.9 52.1,67.7 52.1,60.5 	"/>
	<path fill="#925F36" d="M47.2-20.2l-27.5,5L-9.8,8.2l-11,21.2l0.3,44.2c0,0,25.7,6.1,25.7,4.3c0-11.1,16.2-15.6,16.2-15.6L37,45.6
		c0,0,9.5-13.7,10.4-31.2C48.1,2.2,47.2-20.2,47.2-20.2z"/>
	<g>
		<g>
			<g>
				<path fill="#422918" d="M33.7-10.7c-2.9,2.8-2.4,8.6-2.3,12.4c0,1.6-0.3,10.9,2.4,11c0.5,0,1.1,0,1.3-0.6c0.9-2.9,1.3-6.1,2.1-9
					c0.6-2.2,0.2-14.2-3.2-13.8c-0.4,0-0.6,0.5-0.1,0.4c2.6-0.4,2.8,12.4,2.6,13.4c-0.3,1.6-1,3.1-1.3,4.6c-0.3,1.4-0.9,6.5-2.2,2.4
					c-1.4-4.6-2.5-17,1.3-20.7C34.6-10.9,33.9-10.9,33.7-10.7z"/>
			</g>
		</g>
		<g>
			<g>
				<path fill="#422918" d="M33.1-4.4c-0.2,2.6-0.7,5.1-0.6,7.7c0,0.8,0,2.4,0.8,2.9c0.4,0.2,1.4,0.3,1.4-0.4c0.1-1-0.1-2-0.1-3
					c0.1-1.5,0.8-3,1-4.5C35.9-3,36-4.6,35.2-5.8C34.3-7.2,33.1-5.3,33.1-4.4c0,0.3,0.7,0.2,0.7-0.1c0-0.4,0.1-1.8,0.7-1
					c0.6,0.7,0.5,2,0.5,2.9c0,1.7-0.5,3.3-0.9,4.9c-0.2,0.6-0.2,1.3-0.2,2c0,0.2,0.2,2.2-0.3,1.2c-0.8-1.6-0.4-4.1-0.3-5.9
					c0.1-1.4,0.3-2.7,0.4-4.1C33.8-4.8,33.1-4.6,33.1-4.4z"/>
			</g>
		</g>
		<g>
			<g>
				<path fill="#422918" d="M-10.7,38.5c-0.2,6.4-0.7,12.8,0.3,19.1c0.4,2.7,0.4,8.6,2.4,10.7c0.1,0.1,0.2,0.1,0.3,0
					c2.6-0.8,2.9-5.7,3.3-7.9c1.4-7.1,1.4-15.3,0.5-22.4c-0.1-1-1.1-8.5-3.7-7.5C-10.2,31.6-10.5,36.3-10.7,38.5
					c0,0.4,0.7,0.3,0.7,0c0.1-0.9,0.2-1.8,0.4-2.7c0-0.1,1.6-7.5,3.9-2.2c1.5,3.3,1.5,7.7,1.6,11.2c0.3,6.7-0.3,14.4-2.2,20.8
					c-0.8,2.7-2,0.2-2.2-0.9c-0.4-2.1-0.8-4.1-1.1-6.2c-1.1-6.6-0.7-13.4-0.4-20.1C-10,38.1-10.7,38.2-10.7,38.5z"/>
			</g>
		</g>
		<g>
			<g>
				<path fill="#422918" d="M-9,41.3c-0.5,3.9,0.1,8.1,0.5,12c0.1,1.5,0,6.2,1.1,7.4c2.3,2.4,3.3-4.6,3.4-5.4
					c0.6-5.5,1.4-11.9-0.5-17.1C-6.2,33.8-8.6,39.8-9,41.3c-0.1,0.3,0.7,0.1,0.7-0.1c0.5-2.1,1.9-5.6,3.3-1.7
					c0.7,1.8,0.7,3.9,0.8,5.8c0.1,3.3-0.3,6.8-0.6,10.2c-0.1,1.3-0.3,2.6-0.7,3.9c-1.1,1-1.7,0.9-1.7-0.2c-0.2-0.8-0.2-1.6-0.3-2.4
					c-0.4-5-1.5-10.5-0.9-15.5C-8.2,41-8.9,41.1-9,41.3z"/>
			</g>
		</g>
		<g>
			<g>
				<path fill="#422918" d="M-7.5,50.8c0.1,1.1,0,6.3,2.1,5.7c2.6-0.7,1.9-6.2,1.8-8.1c0-0.8-0.4-6.5-2.2-5.7
					C-8,43.6-7.6,49-7.5,50.8c0,0.2,0.7,0.1,0.7-0.2C-6.9,48.4-6.7,46-6,43.8c0.6-1.8,1.4,2.8,1.5,3.4c0.4,2.1,0.2,5-0.1,7
					c0,0.8-0.5,1.2-1.5,1.2c-0.2-0.5-0.3-1-0.4-1.5c-0.2-1.1-0.3-2.2-0.4-3.4C-6.9,50.4-7.6,50.5-7.5,50.8z"/>
			</g>
		</g>
		<g>
			<g>
				<path fill="#422918" d="M20.7,73.6c2.9-8,4.3-15.9,4.7-24.5c0.3-7.7-2.5-15.1-3.7-22.6c-1.2-7.3-0.8-15.6-0.6-23
					c0.2-5.7,0.3-16.7,5.7-20c1.9-1.1,0.5,2.7,0.4,3.8c-0.1,2.2-0.5,4.3-0.7,6.4c-0.5,4-0.7,7.9-1.4,11.9c-1.1,6.6-1.9,14-0.1,20.5
					c1,3.8,3.2,7.2,4.5,10.9c1.5,4.2,1.4,9.1,1.3,13.5c-0.1,3.9-0.2,7.8-1.2,11.6c-0.9,3.6-2.4,6.9-3.3,10.5c0,0.1,0.1,0.2,0.1,0.2
					c1.3,0.3,2.6,0.6,3.9,0.9c0.2,0,0.6,0,0.6-0.3c0.2-4.1,1.7-7.7,3.3-11.5c0.6-1.4,1-2.9,1.4-4.4c0.2-1,0.3-2,0.4-3.1
					c0-0.8-0.1-0.4-0.5,1.2c0.5,4.3,2.1,7.9,1.9,12.2c-0.1,2.8-0.3,5.4,1.3,7.9c0.1,0.2,0.6,0.1,0.7-0.1c2.1-4.9,3.7-9.3,3.4-14.7
					c-0.3-5-2.8-9.2-2.5-14.4c0.2-2.9,1.2-5.7,1.6-8.5c0.5-2.7,0-5.4-0.3-8.1c-0.5-5.1-0.3-10.3,0-15.4c0.4-8.4,3.7-17,3.3-25.4
					c0-0.8-1.2-6.3-0.9-6.6c1.9-1.8,1.1,0.5,1.5,2.4c1,4.7,1,9.4,0.5,14.2c-0.9,8.1-2.4,15.7-1.9,23.9c1.1,16.9,3.9,33.3-0.6,50
					c0,0.2,0.2,0.2,0.3,0.2c1.2-0.2,2.4-0.4,3.6-0.6c0.2,0,0.4-0.1,0.4-0.3c2.9-12.2,2-25.4,1.1-37.8c-0.5-6.9-2.7-12.7-1.5-19.7
					C48.8,6.9,50.5,0,50.1-8c-0.1-2.8-1.4-5.6-1.9-8.4c-0.2-1.2,1.5-0.7,1.5,1.1c0.1,2.3,0.6,4.7,1,7c1.6,9.8,0.6,20.2,0.6,30.1
					c0,9.5,0.3,19.1-0.3,28.5c-0.5,7.6-2,14.8-0.7,22.4c0,0.1,0.2,0.1,0.2,0.1c0.6,0,1.2,0,1.9,0c0.2,0,0.5-0.1,0.5-0.3
					c-0.7-7.4,0.1-14.1,0.6-21.5c0.5-7.4,0.8-14.4,0.3-21.8c-0.5-8.6,0.4-17.1,0.3-25.7c0-3.4,0-6.9,0.1-10.3
					c0-3.7-1.3-7.1-1.4-10.8c0-0.2-0.2-0.2-0.3-0.2c-5,0.3-10,0.6-15,0.8c-0.2,0-0.5,0.2-0.4,0.4C42.7-8.5,38.3,1,38.2,9.8
					c-0.1,4.2,0.2,8.4,0.2,12.6c0,3.7-4.1,4-6.3,2c-0.6-0.5-1.9-3.9-2.2-4.8c-1.2-3.1-0.1-7.3-0.3-10.7c-0.3-5.2-2-9.8-1.1-15
					c0.3-2,1.1-4,1.7-6c0.7-2.2,0.3-2.8,2.6-3.1c1.5-0.2,2-0.6,2.8,1.1c2.6,5.6,3.1,13.3,1.9,19.1c-0.7,3.2-1.1,6.2-1.4,9.4
					c-0.1,1-0.1,2,0,3c0,0.8,0.1,6.3-1.5,4.2c-2.8-3.8-3.3-10.4-3.8-15c-0.3-3.2-1.4-20.4,3.5-22c0.3-0.1,0.4-0.5,0-0.4
					c-4.8,0.4-9.6,0.7-14.4,1.1c-0.1,0-0.4,0.1-0.4,0.3c0,3.7-1,7.2-1.5,10.8c-0.6,4-0.5,8.1-0.4,12.1c0.2,7.2,0.1,14.5,1.3,21.6
					c0.6,3.6,1.9,7,2.7,10.6c1,4.4,1.1,9.1,0.9,13.6c-0.1,1.7-6.6,18.6-5.9,19c-0.8-0.4-1.5-0.8-2.3-1.1c-0.3-0.2,1.3-5,1.5-5.4
					c1.2-4.2,2-8.5,2.6-12.8c1.1-8,0.6-16.3-1.6-24.1c-2.2-7.8-5-14.2-4.5-22.5C12.9-0.5,15.1-8,14-15.8c0-0.2-0.3-0.1-0.4-0.1
					c-1.4,0.3-2.7,0.6-4.1,0.9c-0.1,0-0.3,0.1-0.3,0.2c-1.2,8.9,0,17.3,0.7,26.2c0.7,8.9,0.7,17.7,2.6,26.5
					c2.1,9.4,2.4,18.4,0.6,27.8c-0.3,1.7-0.7,3.4-1.1,5.1c-0.5,2.1,0.2,3.3-2.1,2.5c-1.7-0.5,0.2-10.2,0.4-12.2
					C11.3,51.6,11.3,42.3,9,33c-1.6-6.7-2.8-12.9-2.8-19.9c0-9.2,0.5-18.4,0.5-27.6c0-0.2-0.3-0.2-0.4-0.2c-0.7,0.2-1.5,0.4-2.2,0.6
					c-0.1,0-0.3,0.1-0.3,0.2c-0.2,4.1-2.1,7.9-2.7,12c-0.7,4.5-0.8,9-0.4,13.5c1,10.4,5.4,20.2,6.8,30.6C8.1,47,8.3,51.9,8,56.7
					c-0.3,4-3.1,8.1-4.9,11.6c-0.3,0.6-3.3,7.5-2.6,7.5c-1.6,0-3.2,0.1-4.9,0.1C-9.6,76-14.8,76.2-20,76.3c-1.4,0-2.8,0.1-4.2,0.1
					c0.2,0-1.9-3.6-1.8-3.5c-2-3.3-2-6.2-1-9.8c1.4-5,3.6-9.8,5.1-14.9c1.5-5.3,2.7-10.7,3.4-16.2c0.8-5.7,0.9-11.5,0.9-17.2
					c0-1.2,0-2.4,0-3.7c0,0-1-0.2-0.4,0.3c0.2,0.1,0.4,0.1,0.6,0c0.5-0.3,0.5-1.2,0.6-1.6c0.3-1.5,0.5-2.7,1.2-4.1
					c0.3-0.6,0.6-1.1,0.9-1.7c0.6-1.1,0.5-0.8-0.2,1c0.1,6.8,0.4,13.6,0.3,20.4c-0.1,7.5-0.5,15.2-2,22.6c-1.8,8.5-4.2,16.4-1.5,25
					c0,0.1,0.1,0.1,0.2,0.1c3,0,6.1,0,9.1,0c0.1,0,0.6-0.1,0.5-0.3c-1.1-3.3-1.5-6.1-3.6-9c-2.9-4.1-2-9.6-1.6-14.3
					c0.8-8.7,0.7-18.9,5-26.8c1.6-3,4.6,7.8,4.7,8.4c1.1,5.2,1.2,10.1,1.2,15.4c0,4.8,0.3,9.4-0.7,14.1c-1.1,4.8-3.1,9.1-3.3,14.1
					c0,0.2,0.3,0.2,0.4,0.2c1.2-0.3,2.7-0.4,3.8-1c1.1-0.5,2.7-5.7,3.2-7c3.1-6.9,2.3-15.9,1.9-23.2c-0.5-9.9-3-18.9-5.3-28.4
					C-3.7,10.2-4,5.2-3.3,0c0.5-3.4,1.9-6.6,1.9-10c0-0.3-0.7-0.2-0.7,0.1c0,2.4-0.9,4.3-1.4,6.6c-0.7,3.3-1,6.7-1,10
					C-4.6,13.8-1.7,21.1,0,28.1C1.9,35.6,2.2,43.3,2.2,51c0,3.4-0.1,6.9-0.4,10.3c-0.3,3.9-2.6,7.5-4.1,11C-3,74-2.9,73.7-4.5,74.1
					c-1.7,0.4-1.5,0.9-1.4-1c0.1-3.2,1.4-6.3,2.3-9.3c2.4-7.4,1.7-15,1.8-22.7c0-3.2-0.7-19.8-6.1-19.4c-1.7,0.1-2.5,3.9-2.9,5.1
					c-2.2,7-2.6,14.2-3.3,21.4c-0.4,4.3-1.7,10.8,0.8,14.7c1.8,2.9,3.1,5.3,3.8,8.6c0.3,1.3,1.4,1.1-0.1,1.1c-1.2,0-2.3,0-3.5,0
					c-1.5,0-2.9,0-4.4,0c-1.5,0-1.2-10.5-1.1-11.6c0.6-7.3,3.2-14.3,3.9-21.6c1-11,0.7-21.8,0.5-32.8c0-1.2,0-2.4,0-3.5
					c0-0.3-0.6-0.2-0.7,0c-1.2,2.1-3.4,5.8-2.6,7.7c-0.1-0.3-0.6-0.1-0.7,0.1c-0.2,0.3-0.1,1.1-0.1,1.5c0,3.4,0,6.8-0.2,10.2
					c-0.3,6.9-1.2,13.8-2.8,20.5c-1.5,6.3-3.6,12.4-5.8,18.5c-1,2.7-1.6,5.1-1.2,7.9c0.3,2.5,2.7,5.2,3.8,7.2
					c0.1,0.1,0.2,0.1,0.3,0.1c8.3-0.2,16.6-0.4,24.9-0.6C0.7,76.3,1,76.2,1,76c0.8-6.6,5.8-12,7.5-18.4c1.9-7-0.2-16.8-1.7-23.6
					C4.6,24,0.9,14.8,1.2,4.3C1.2,0.2,1.8-4.1,3.1-8c0.1-0.4,1.6-5.8,1.5-5.8c0.5-0.1,1-0.3,1.5-0.4c-0.2,0.1-0.2,4.9-0.2,5.3
					C5.7-0.4,5.2,8.1,5.5,16.5c0.2,6.4,1.7,12.1,3.1,18.3c2.9,12.7,1.2,25.8-0.3,38.5c0,0.1,0.1,0.1,0.1,0.2
					c0.9,0.3,1.9,0.6,2.8,0.9c0.2,0.1,0.5,0,0.6-0.3c1.8-7.4,3.4-14.8,3.3-22.5c-0.1-7.1-2.2-13.9-3.3-20.9
					c-1.1-7.6-0.9-15.4-1.6-23c-0.4-4-3.6-21.7,0.9-22.8c0.8-0.2,1.5-0.3,2.3-0.5c-0.2,0,0.2,5.8,0.2,6.8c-0.1,4.2-1,8.3-1.6,12.5
					c-1,7.1-0.2,13.3,2.1,20.1c5.5,16.3,4.8,32-0.7,48.3c0,0.1,0,0.1,0.1,0.2c1,0.5,1.9,0.9,2.9,1.4c0.2,0.1,0.6,0,0.6-0.2
					c1.4-5,3.4-9.9,5.2-14.9c2-5.6,1.2-12.4,0.2-18.2c-1.2-6.6-3.3-12.7-3.7-19.5C18.2,13.4,18,5.6,18.6-2c0.2-3,0.9-5.9,1.4-8.9
					c0.5-2.7-1-3.3,1.7-3.5c3.5-0.3,7.1-0.5,10.6-0.8c2.6-0.2,1-0.7-0.2,1.3c-1.7,3-1.8,7.2-2.1,10.5c-0.7,8,0.1,16.6,3.2,24.1
					c0.4,1,1.1,2.6,2.4,2.2c2-0.5,1.2-4.3,1.1-5.6c-0.4-4.8,0.8-9.4,1.8-14c0.9-4.3,0-8.8-0.9-13c-0.3-1.5-0.9-5.9-2.8-6.4
					c-1-0.3-3.1,0.6-4.1,0.8c-0.2,0-0.4,0.1-0.4,0.3c-1.5,6-3.5,11.1-2.6,17.4C28.3,6.1,29,9.4,28.9,13c-0.1,2.7-0.3,5.4,0.7,7.9
					c1.2,3.1,2.4,4.9,5.6,6.1c2.4,0.9,3.4-1.4,3.8-3.3c0.6-2.7-0.1-6-0.1-8.8c0.1-3.5,0-7.1,0.4-10.6c0.7-5.9,2.3-11.4,0.6-17.3
					c-0.3-1-0.8-1.8-1.3-2.7c-0.6-1.1-1.8-0.8-0.5-0.9c1.5-0.1,2.9-0.2,4.4-0.2c3.3-0.2,6.6-0.4,9.9-0.5c-0.7,0,1,6.8,1.1,7.3
					c0.6,3.8,0,8,0,11.8c0,7.9-0.7,15.9-0.5,23.8c0.2,7.5,1,14.9,0.1,22.4c-0.7,6.2-1.6,12.6-1.4,18.8c0.1,1.5,0.2,3.1,0.4,4.6
					c0.2,1.9-1,1.2-1.2-0.2c-0.6-3.6-0.4-7.3-0.1-10.8c0.5-7.8,1.4-15.4,1.4-23.3c0-7.6,0-15.2,0-22.9c0-7.6,0.5-15.1-0.6-22.6
					c-0.4-2.9-0.9-5.8-1-8.7c0-0.1-0.2-0.1-0.2-0.1c-0.8-0.1-1.5-0.1-2.3-0.2c-0.2,0-0.5,0.1-0.5,0.3c0.2,3.2,1.4,6.2,2,9.4
					c1,5-0.1,11.2-1.2,16.1c-1.6,7.3-2.4,13.1-0.8,20.4c1.7,7.9,1.5,16.6,1.5,24.6c0,3.9-0.2,7.7-0.5,11.6c-0.2,1.7-0.4,3.4-0.7,5.1
					c-0.4,2.3-0.6,2.1-2.8,2.5c-1.2,0.2,0-2.1,0.2-3.1c0.4-1.8,0.6-3.6,0.9-5.4c0.6-4.2,0.9-8.5,1-12.8c0.2-7.1-0.8-14.1-1.5-21.1
					c-0.9-8.7-0.9-16.8,0.4-25.5c1.2-8.1,1.4-15.4-0.5-23.4c-0.1-0.3-0.5-0.1-0.7,0c-0.5,0.5-1.1,1-1.6,1.5c0,0-0.1,0.1-0.1,0.2
					c3,10.3-1.6,21.4-2.2,31.8c-0.5,9,1.6,18.5-0.5,27.2C38.3,51,43.1,59,41.6,68.1c-0.3,2-1.2,3.7-2,5.5c-1.7,4-1.5-3.1-1.5-4.3
					c0.1-5.4-1.4-10.1-2-15.5c0-0.3-0.7-0.1-0.7,0.1c0,4.3-1.8,8.2-3.4,12.1c-0.8,1.9-1.2,3.8-1.5,5.9c0.6,1.1,0.5,1.5-0.3,1.1
					c-0.8-0.2-1.6-0.4-2.4-0.6c-1.2-0.3,2.6-10.4,3-12c1.2-4.8,0.9-10.4,0.7-15.3c-0.2-5.3-1.7-9.9-3.9-14.6
					c-2.6-5.6-3-10.8-2.7-16.9c0.6-10.2,3.8-20.6,2.9-30.9c0-0.2-0.5-0.1-0.6,0c-0.7,0.4-2.5,1.1-2.9,1.8c-1.6,3.1-2.5,6.4-3.2,9.8
					c-1.6,8-0.9,16.4-0.8,24.5c0.2,8.6,2.7,16.6,3.9,25.1c1.4,9.9-1.1,20.7-4.5,29.9C19.8,73.9,20.6,73.9,20.7,73.6L20.7,73.6z"/>
			</g>
		</g>
	</g>
	<rect x="-23.6" y="18.8" fill="#FFEC00" width="60.8" height="34.7"/>
	<path fill="#468D30" stroke="#1D1D1B" stroke-width="5.2019" stroke-miterlimit="10" d="M3.2-11.6l-0.1,0.1
		C3.1-11.5,3.2-11.6,3.2-11.6L3.2-11.6z"/>
	<path fill="#F5F5F5" d="M37.1,24.7V-10L3.2-5.9c-0.1,0-0.1,0.1-0.2,0.1L-20,24.7H37.1z"/>
	<polygon fill="#888887" points="78.3,31.6 72.6,35.2 70.5,32.8 70.2,33 75.1,42.4 80.7,38 79.4,32.7 	"/>
	<polygon fill="#BCBCBB" points="70.5,32.8 72.5,35.4 78.3,31.6 75.9,29 	"/>
	<g>
		<g id="meanicons_x5F_14">
			<g>
				<path fill="#4D8030" d="M89.4,18l19.3-10.6C101.7,11,94.8,14.7,89.4,18z"/>
				<path fill="#2D2A04" d="M80.3,38.4c4.5-1.5,6.5-1.5,9-2.9c6.8-3.7,42-30.5,52.8-39c-0.7-1.4,0.8,0.2,0-1.1
					C125.2,5.8,86.8,28.3,78,32.9C78.9,34.4,79.7,36.2,80.3,38.4z"/>
				<path fill="#403B00" d="M108.7,7.4L89.4,18c-3.2,1.9-5.9,3.6-7.9,5.1c-2,1.5-2.9,3.1-5.5,5.9l1.6,3.1c0.2,0.2,0.3,0.5,0.5,0.8
					c3.8-1.2,47.2-27.1,64.1-37.4c-1.2-1.9-0.9-1.6-2.3-3.4C138.8-7.3,109.9,6.8,108.7,7.4z"/>
				<path fill="#FFEC00" d="M72.7,35.5l-0.1-0.1c-2,1.9-6.1,6.8-7.5,9.3c-1.8,3.2-3.1,11.4-27.8,7.4c-0.2,0-0.4,0-0.6-0.1
					c7,4.2,28.2,14.8,39.3-10.5C75.5,39.1,74,37,73,35.3L72.7,35.5z"/>
				<path fill="#FFEC00" d="M72.6,35.4l0.1,0.1l0.3-0.2c0-0.1-0.1-0.1-0.1-0.2C72.8,35.2,72.7,35.3,72.6,35.4z"/>
				<path fill="#FFF685" d="M52,41.3c-5.4,8-12.5,10.7-14.7,10.8c24.8,4,26-3.8,27.9-7c1.4-2.5,5.5-7.8,7.5-9.7l-2.8-3.5
					C64.1,30.1,57.6,32.9,52,41.3z"/>
				<path fill="#FFF685" d="M70.6,32.2c-0.3-0.1-0.6-0.2-0.9-0.3l2.8,3.5c0.1-0.1,0.2-0.2,0.3-0.3C71.4,32.5,70.6,32.2,70.6,32.2z"
					/>
			</g>
		</g>
		<g id="Layer_1_1_">
		</g>
	</g>
	<polyline fill="none" points="132.4,136.2 132.4,-30.7 -34.6,-30.7 -34.6,136.2 	"/>
</g>
</svg>
