<?xml version="1.0" encoding="utf-8"?>
<!-- Generator: Adobe Illustrator 15.1.0, SVG Export Plug-In . SVG Version: 6.00 Build 0)  -->
<!DOCTYPE svg PUBLIC "-//W3C//DTD SVG 1.1//EN" "http://www.w3.org/Graphics/SVG/1.1/DTD/svg11.dtd">
<svg version="1.1" xmlns="http://www.w3.org/2000/svg" xmlns:xlink="http://www.w3.org/1999/xlink" x="0px" y="0px" width="135px"
	 height="65px" viewBox="0 0 135 65" enable-background="new 0 0 135 65" xml:space="preserve">
<g id="Layer_3">
	<path fill="#C6C6C5" d="M28.6,63.1c0,0,12.4-1.1,14.7-1.2c2.1,0,16.3,1.2,16.3,1.2c0,0,12.8-1.7,14.4-1.7c1.9,0,13.8,1.7,13.8,1.7
		l-0.3-5.6L59,53.4l-27.4,3.5L28.6,63.1z"/>
	<polygon fill="#EDF1F1" points="28.5,6.8 28.5,63.2 43.7,58.3 59.7,63.2 74.2,58.3 89.3,63.1 104.5,58.2 104.5,1.8 89.3,6.8 
		74.1,1.8 59.7,6.8 43.8,1.8 	"/>
	<polygon fill="#D3D7D7" points="43.6,4.4 43.8,1.8 59.7,6.8 59.8,9.1 	"/>
	<polygon fill="#36A445" points="31.7,8.2 31.6,59.5 43.7,55.7 59.7,60.5 74.1,55.7 89.3,60.6 101.5,56.5 101.5,5.4 89.3,9.3 
		74.2,4.3 59.8,9.1 43.6,4.4 	"/>
	<polygon fill="#089F39" points="43.6,4.4 43.7,55.7 59.7,60.5 59.8,9.1 	"/>
	<polygon fill="#089F39" points="74.2,4.3 74.1,55.7 89.3,60.6 89.3,9.3 	"/>
	<path fill="#CC6600" stroke="#CC6600" stroke-width="0.6297" stroke-miterlimit="10" d="M65.3,31.4"/>
</g>
<g id="Prvky_API">
	<path fill-rule="evenodd" clip-rule="evenodd" fill="#F7931E" d="M66.4,9.6c-5.5,0-10,4.5-10,10.1c0,5.6,10,21.9,10,21.9
		s10-16.3,10-21.9C76.4,14.1,71.9,9.6,66.4,9.6z"/>
	<ellipse fill="#FFFFFF" cx="66.4" cy="19.6" rx="6.6" ry="6.7"/>
</g>
</svg>
