<?xml version="1.0" encoding="utf-8"?>
<!-- Generator: Adobe Illustrator 15.1.0, SVG Export Plug-In . SVG Version: 6.00 Build 0)  -->
<!DOCTYPE svg PUBLIC "-//W3C//DTD SVG 1.1//EN" "http://www.w3.org/Graphics/SVG/1.1/DTD/svg11.dtd">
<svg version="1.1" id="Footer" xmlns="http://www.w3.org/2000/svg" xmlns:xlink="http://www.w3.org/1999/xlink" x="0px" y="0px"
	 width="62.4px" height="62.4px" viewBox="0 0 62.4 62.4" enable-background="new 0 0 62.4 62.4" xml:space="preserve">
<g id="Ikony">
	<g id="Email">
		<g>
			<g id="Shadow_10_" opacity="0.302">
				<g>
					<path fill-rule="evenodd" clip-rule="evenodd" d="M57.3,1.9H5c-2.8,0-5,2.2-5,4.9v50.7c0,2.7,2.3,4.9,5,4.9h52.3
						c2.8,0,5-2.2,5-4.9V6.8C62.4,4.1,60.1,1.9,57.3,1.9z"/>
				</g>
			</g>
			<g id="Background_5_">
				<g>
					<path fill-rule="evenodd" clip-rule="evenodd" fill="#EF5C4A" d="M57.3,0H5C2.3,0,0,2.2,0,4.9v50.7c0,2.7,2.3,4.9,5,4.9h52.3
						c2.8,0,5-2.2,5-4.9V4.9C62.4,2.2,60.1,0,57.3,0z"/>
				</g>
			</g>
			<g id="Symbol_Shadow" opacity="0.15">
				<g>
					<path fill-rule="evenodd" clip-rule="evenodd" fill="#1D1D1B" d="M47,15.4c-3-3.5-7.2-5.3-12.7-5.3c-5.4,0-9.8,1.9-13.2,5.6
						c-3.4,3.7-5.2,8.6-5.5,14.6c-0.3,6.1,1.1,10.9,4.2,14.5c3,3.5,7.3,5.3,12.9,5.3c1.4,0,2.9-0.2,4.4-0.5s2.8-0.8,3.7-1.4L40,46
						c-0.9,0.5-2,0.9-3.3,1.2c-1.3,0.3-2.6,0.5-3.9,0.5c-4.6,0-8.1-1.5-10.6-4.6s-3.5-7.3-3.3-12.6c0.2-5.2,1.7-9.5,4.4-12.8
						c2.7-3.3,6.4-4.9,10.9-4.9c4.9,0,8.5,1.5,10.9,4.5c2.3,3,3.4,7.2,3.2,12.6c-0.1,2.5-0.7,4.5-1.8,6.1c-1.1,1.6-2.5,2.4-4.3,2.4
						c-0.7,0-1.3-0.3-1.8-0.9c-0.4-0.6-0.6-1.7-0.5-3.2l1.1-12.4h-0.1l0.1-0.1c-1.1-0.8-2.1-1.3-3-1.7c-0.9-0.4-2.2-0.6-3.7-0.6
						c-2.4,0-4.5,1.1-6.1,3.3c-1.7,2.2-2.7,5.2-3,8.8c-0.3,2.8,0.1,5,1.1,6.7c1,1.7,2.4,2.6,4.2,2.6c1.4,0,2.6-0.3,3.7-0.8
						c1.1-0.6,1.9-1.4,2.7-2.5c0.3,1.1,0.9,1.9,1.7,2.5c0.8,0.6,1.7,0.9,2.8,0.9c3.2,0,5.7-1.1,7.3-3.3c1.6-2.2,2.5-4.8,2.6-7.8
						C51.3,23.8,49.9,19,47,15.4z M36.4,34.3c0,0.2,0,0.4-0.1,0.6c0,0.2,0,0.4,0,0.5c-0.6,0.9-1.4,1.5-2.1,1.9
						c-0.8,0.3-1.6,0.5-2.6,0.5c-1.1,0-1.9-0.5-2.3-1.6c-0.5-1-0.6-2.6-0.5-4.6c0.3-3.1,0.9-5.5,1.9-7c1-1.5,2.4-2.3,4.2-2.3
						c0.5,0,0.9,0,1.3,0.1c0.4,0.1,0.8,0.2,1.2,0.4L36.4,34.3z"/>
				</g>
			</g>
			<g id="Symbol_2_">
				<g>
					<path fill-rule="evenodd" clip-rule="evenodd" fill="#FFFFFF" d="M45,14.5c-3-3.5-7.2-5.3-12.7-5.3c-5.4,0-9.8,1.9-13.2,5.6
						c-3.4,3.7-5.2,8.6-5.5,14.6c-0.3,6.1,1.1,10.9,4.2,14.5c3,3.5,7.3,5.3,12.9,5.3c1.4,0,2.9-0.2,4.4-0.5s2.8-0.8,3.7-1.4L38,45
						c-0.9,0.5-2,0.9-3.3,1.2c-1.3,0.3-2.6,0.5-3.9,0.5c-4.6,0-8.1-1.5-10.6-4.6s-3.5-7.3-3.3-12.6c0.2-5.2,1.7-9.5,4.4-12.8
						c2.7-3.3,6.4-4.9,10.9-4.9c4.9,0,8.5,1.5,10.9,4.5c2.3,3,3.4,7.2,3.2,12.6c-0.1,2.5-0.7,4.5-1.8,6.1c-1.1,1.6-2.5,2.4-4.3,2.4
						c-0.7,0-1.3-0.3-1.8-0.9c-0.4-0.6-0.6-1.7-0.5-3.2l1.1-12.4h-0.1l0.1-0.1c-1.1-0.8-2.1-1.3-3-1.7c-0.9-0.4-2.2-0.6-3.7-0.6
						c-2.4,0-4.5,1.1-6.1,3.3c-1.7,2.2-2.7,5.2-3,8.8c-0.3,2.8,0.1,5,1.1,6.7c1,1.7,2.4,2.6,4.2,2.6c1.4,0,2.6-0.3,3.7-0.8
						c1.1-0.6,1.9-1.4,2.7-2.5c0.3,1.1,0.9,1.9,1.7,2.5c0.8,0.6,1.7,0.9,2.8,0.9c3.2,0,5.7-1.1,7.3-3.3c1.6-2.2,2.5-4.8,2.6-7.8
						C49.3,22.8,47.9,18,45,14.5z M34.4,33.3c0,0.2,0,0.4-0.1,0.6c0,0.2,0,0.4,0,0.5c-0.6,0.9-1.4,1.5-2.1,1.9
						c-0.8,0.3-1.6,0.5-2.6,0.5c-1.1,0-1.9-0.5-2.3-1.6c-0.5-1-0.6-2.6-0.5-4.6c0.3-3.1,0.9-5.5,1.9-7c1-1.5,2.4-2.3,4.2-2.3
						c0.5,0,0.9,0,1.3,0.1c0.4,0.1,0.8,0.2,1.2,0.4L34.4,33.3z"/>
				</g>
			</g>
		</g>
	</g>
	<g id="TW" display="none">
		<g display="inline">
			<g id="Shadow_5_" opacity="0.302">
				<g>
					<path fill-rule="evenodd" clip-rule="evenodd" d="M57.3,1.9H5c-2.8,0-5,2.2-5,4.9v50.7c0,2.7,2.3,4.9,5,4.9h52.3
						c2.8,0,5-2.2,5-4.9V6.8C62.4,4.1,60.1,1.9,57.3,1.9z"/>
				</g>
			</g>
			<g id="Background_4_">
				<g>
					<path fill-rule="evenodd" clip-rule="evenodd" fill="#71DBFB" d="M57.3,0H5C2.3,0,0,2.2,0,4.9v50.7c0,2.7,2.3,4.9,5,4.9h52.3
						c2.8,0,5-2.2,5-4.9V4.9C62.4,2.2,60.1,0,57.3,0z"/>
				</g>
			</g>
			<g id="Symbol_shadow_2_" opacity="0.149">
				<g>
					<path fill-rule="evenodd" clip-rule="evenodd" d="M50.3,22.5c-1.2,0.5-2.5,0.9-3.8,1c1.4-0.8,2.4-2,2.9-3.5
						c-1.3,0.7-2.7,1.3-4.2,1.6c-1.2-1.2-2.9-2-4.8-2c-3.6,0-6.6,2.9-6.6,6.4c0,0.5,0.1,1,0.2,1.5c-5.5-0.3-10.4-2.8-13.6-6.7
						c-0.6,0.9-0.9,2-0.9,3.2c0,2.2,1.2,4.2,2.9,5.3c-1.1,0-2.1-0.3-3-0.8c0,0,0,0.1,0,0.1c0,3.1,2.3,5.7,5.3,6.3
						C24.1,34.9,23.6,35,23,35c-0.4,0-0.8,0-1.2-0.1c0.8,2.5,3.3,4.4,6.2,4.4C25.6,41,22.8,42,19.7,42c-0.5,0-1.1,0-1.6-0.1
						c2.9,1.8,6.4,2.9,10.1,2.9c12.1,0,18.8-9.7,18.8-18.2c0-0.3,0-0.6,0-0.8C48.3,24.9,49.4,23.8,50.3,22.5z"/>
				</g>
			</g>
			<g id="Symbol_3_">
				<g>
					<path fill-rule="evenodd" clip-rule="evenodd" fill="#FFFFFF" d="M48.3,20.5c-1.2,0.5-2.5,0.9-3.8,1c1.4-0.8,2.4-2,2.9-3.5
						c-1.3,0.7-2.7,1.3-4.2,1.6c-1.2-1.2-2.9-2-4.8-2c-3.6,0-6.6,2.9-6.6,6.4c0,0.5,0.1,1,0.2,1.5c-5.5-0.3-10.4-2.8-13.6-6.7
						c-0.6,0.9-0.9,2-0.9,3.2c0,2.2,1.2,4.2,2.9,5.3c-1.1,0-2.1-0.3-3-0.8c0,0,0,0.1,0,0.1c0,3.1,2.3,5.7,5.3,6.3
						c-0.6,0.1-1.1,0.2-1.7,0.2c-0.4,0-0.8,0-1.2-0.1c0.8,2.5,3.3,4.4,6.2,4.4c-2.3,1.7-5.1,2.7-8.2,2.7c-0.5,0-1.1,0-1.6-0.1
						c2.9,1.8,6.4,2.9,10.1,2.9c12.1,0,18.8-9.7,18.8-18.2c0-0.3,0-0.6,0-0.8C46.3,22.9,47.4,21.8,48.3,20.5z"/>
				</g>
			</g>
		</g>
	</g>
	<g id="FB" display="none">
		<g display="inline">
			<g id="Shadow_8_" opacity="0.302">
				<g>
					<path fill-rule="evenodd" clip-rule="evenodd" d="M57.3,1.9H5c-2.8,0-5,2.2-5,4.9v50.7c0,2.7,2.3,4.9,5,4.9h52.3
						c2.8,0,5-2.2,5-4.9V6.8C62.4,4.1,60.1,1.9,57.3,1.9z"/>
				</g>
			</g>
			<g id="Background_3_">
				<g>
					<path fill-rule="evenodd" clip-rule="evenodd" fill="#5A7CC3" d="M57.3,0H5C2.3,0,0,2.2,0,4.9v50.7c0,2.7,2.3,4.9,5,4.9h52.3
						c2.8,0,5-2.2,5-4.9V4.9C62.4,2.2,60.1,0,57.3,0z"/>
				</g>
			</g>
			<g id="Symbol_shadow" opacity="0.149">
				<g>
					<path fill-rule="evenodd" clip-rule="evenodd" d="M36.8,22.9c0.7,0,2.1,0,3.4,0c0-0.7,0-3.1,0-5.3c-1.8,0-3.8,0-4.6,0
						c-6.6,0-6.4,5.1-6.4,5.9s0,4.2,0,4.2h-3v5.1h3v14h6.3v-14h4.2c0,0,0.4-2.5,0.6-5.1c-0.5,0-4.8,0-4.8,0s0-3,0-3.5
						C35.5,23.6,36.2,22.9,36.8,22.9z"/>
				</g>
			</g>
			<g id="Symbol">
				<g>
					<path fill-rule="evenodd" clip-rule="evenodd" fill="#FFFFFF" d="M34.8,20.9h3.4v-5.3h-4.6c-6.6,0-6.4,5.1-6.4,5.9
						c0,0.8,0,4.2,0,4.2h-3v5.1h3v14h6.3v-14h4.2c0,0,0.4-2.5,0.6-5.1c-0.5,0-4.8,0-4.8,0s0-3,0-3.5C33.5,21.6,34.1,20.9,34.8,20.9z
						"/>
				</g>
			</g>
		</g>
	</g>
</g>
</svg>
