<?xml version="1.0" encoding="utf-8"?>
<!-- Generator: Adobe Illustrator 15.1.0, SVG Export Plug-In . SVG Version: 6.00 Build 0)  -->
<!DOCTYPE svg PUBLIC "-//W3C//DTD SVG 1.1//EN" "http://www.w3.org/Graphics/SVG/1.1/DTD/svg11.dtd">
<svg version="1.1" id="Footer" xmlns="http://www.w3.org/2000/svg" xmlns:xlink="http://www.w3.org/1999/xlink" x="0px" y="0px"
	 width="62.4px" height="62.4px" viewBox="0 0 62.4 62.4" enable-background="new 0 0 62.4 62.4" xml:space="preserve">
<g id="Ikony">
	<g id="Email" display="none">
		<g id="Shadow_10_" display="inline" opacity="0.302">
			<g>
				<path fill-rule="evenodd" clip-rule="evenodd" d="M153.8,267.9h-52c-2.8,0-5,2.2-5,5v52c0,2.8,2.2,5,5,5h52c2.8,0,5-2.2,5-5v-52
					C158.8,270.1,156.5,267.9,153.8,267.9z"/>
			</g>
		</g>
		<g id="Background_5_" display="inline">
			<g>
				<path fill-rule="evenodd" clip-rule="evenodd" fill="#EF5C4A" d="M153.8,265.9h-52c-2.8,0-5,2.2-5,5v52c0,2.8,2.2,5,5,5h52
					c2.8,0,5-2.2,5-5v-52C158.8,268.1,156.5,265.9,153.8,265.9z"/>
			</g>
		</g>
		<g id="Symbol_Shadow" display="inline" opacity="0.15">
			<g>
				<path fill-rule="evenodd" clip-rule="evenodd" fill="#1D1D1B" d="M143.5,281.7c-2.9-3.6-7.2-5.4-12.7-5.4
					c-5.4,0-9.8,1.9-13.1,5.8s-5.1,8.8-5.4,15c-0.3,6.3,1.1,11.2,4.1,14.8c3,3.6,7.3,5.4,12.8,5.4c1.4,0,2.9-0.2,4.4-0.5
					c1.5-0.3,2.7-0.8,3.7-1.4l-0.8-2.3c-0.9,0.5-2,0.9-3.3,1.2c-1.3,0.3-2.6,0.5-3.9,0.5c-4.6,0-8.1-1.6-10.5-4.8
					c-2.4-3.2-3.5-7.5-3.3-12.9c0.2-5.4,1.7-9.7,4.4-13.1s6.3-5,10.8-5c4.9,0,8.5,1.5,10.8,4.6c2.3,3.1,3.4,7.4,3.1,12.9
					c-0.1,2.5-0.7,4.6-1.8,6.3c-1.1,1.6-2.5,2.5-4.3,2.5c-0.7,0-1.3-0.3-1.8-0.9c-0.4-0.6-0.6-1.7-0.5-3.3l1.1-12.7h-0.1l0.1-0.1
					c-1.1-0.8-2.1-1.4-3-1.7c-0.9-0.4-2.2-0.6-3.7-0.6c-2.4,0-4.4,1.1-6.1,3.4c-1.7,2.3-2.7,5.3-3,9c-0.3,2.8,0.1,5.1,1.1,6.9
					c1,1.8,2.4,2.6,4.2,2.6c1.4,0,2.6-0.3,3.7-0.9c1-0.6,1.9-1.4,2.7-2.6c0.3,1.1,0.9,2,1.7,2.6c0.8,0.6,1.7,0.9,2.7,0.9
					c3.2,0,5.6-1.1,7.2-3.4c1.6-2.2,2.5-4.9,2.6-8C147.8,290.3,146.4,285.4,143.5,281.7z M133,301.1c0,0.2,0,0.4-0.1,0.6
					c0,0.2,0,0.4,0,0.6c-0.6,0.9-1.3,1.5-2.1,1.9s-1.6,0.5-2.5,0.5c-1.1,0-1.8-0.5-2.3-1.6c-0.5-1.1-0.6-2.6-0.5-4.7
					c0.3-3.2,0.9-5.6,1.9-7.2s2.3-2.4,4.2-2.4c0.4,0,0.9,0.1,1.3,0.2c0.4,0.1,0.8,0.2,1.2,0.4L133,301.1z"/>
			</g>
		</g>
		<g id="Symbol_2_" display="inline">
			<g>
				<path fill-rule="evenodd" clip-rule="evenodd" fill="#FFFFFF" d="M141.5,280.7c-2.9-3.6-7.2-5.4-12.7-5.4
					c-5.4,0-9.8,1.9-13.1,5.8s-5.1,8.8-5.4,15c-0.3,6.3,1.1,11.2,4.1,14.8c3,3.6,7.3,5.4,12.8,5.4c1.4,0,2.9-0.2,4.4-0.5
					c1.5-0.3,2.7-0.8,3.7-1.4l-0.8-2.3c-0.9,0.5-2,0.9-3.3,1.2c-1.3,0.3-2.6,0.5-3.9,0.5c-4.6,0-8.1-1.6-10.5-4.8
					c-2.4-3.2-3.5-7.5-3.3-12.9c0.2-5.4,1.7-9.7,4.4-13.1s6.3-5,10.8-5c4.9,0,8.5,1.5,10.8,4.6c2.3,3.1,3.4,7.4,3.1,12.9
					c-0.1,2.5-0.7,4.6-1.8,6.3c-1.1,1.6-2.5,2.5-4.3,2.5c-0.7,0-1.3-0.3-1.8-0.9c-0.4-0.6-0.6-1.7-0.5-3.3l1.1-12.7h-0.1l0.1-0.1
					c-1.1-0.8-2.1-1.4-3-1.7c-0.9-0.4-2.2-0.6-3.7-0.6c-2.4,0-4.4,1.1-6.1,3.4c-1.7,2.3-2.7,5.3-3,9c-0.3,2.8,0.1,5.1,1.1,6.9
					c1,1.8,2.4,2.6,4.2,2.6c1.4,0,2.6-0.3,3.7-0.9c1-0.6,1.9-1.4,2.7-2.6c0.3,1.1,0.9,2,1.7,2.6c0.8,0.6,1.7,0.9,2.7,0.9
					c3.2,0,5.6-1.1,7.2-3.4c1.6-2.2,2.5-4.9,2.6-8C145.8,289.3,144.4,284.4,141.5,280.7z M131,300.1c0,0.2,0,0.4-0.1,0.6
					c0,0.2,0,0.4,0,0.6c-0.6,0.9-1.3,1.5-2.1,1.9s-1.6,0.5-2.5,0.5c-1.1,0-1.8-0.5-2.3-1.6c-0.5-1.1-0.6-2.6-0.5-4.7
					c0.3-3.2,0.9-5.6,1.9-7.2s2.3-2.4,4.2-2.4c0.4,0,0.9,0.1,1.3,0.2c0.4,0.1,0.8,0.2,1.2,0.4L131,300.1z"/>
			</g>
		</g>
	</g>
	<g id="TW" display="none">
		<g id="Shadow_5_" display="inline" opacity="0.302">
			<g>
				<path fill-rule="evenodd" clip-rule="evenodd" d="M52.2,267.9h-52c-2.8,0-5,2.2-5,5v52c0,2.8,2.2,5,5,5h52c2.8,0,5-2.2,5-5v-52
					C57.2,270.1,55,267.9,52.2,267.9z"/>
			</g>
		</g>
		<g id="Background_4_" display="inline">
			<g>
				<path fill-rule="evenodd" clip-rule="evenodd" fill="#71DBFB" d="M52.2,265.9h-52c-2.8,0-5,2.2-5,5v52c0,2.8,2.2,5,5,5h52
					c2.8,0,5-2.2,5-5v-52C57.2,268.1,55,265.9,52.2,265.9z"/>
			</g>
		</g>
		<g id="Symbol_shadow_2_" display="inline" opacity="0.149">
			<g>
				<path fill-rule="evenodd" clip-rule="evenodd" d="M45.2,289c-1.2,0.5-2.4,0.9-3.8,1c1.4-0.8,2.4-2.1,2.9-3.6
					c-1.3,0.8-2.7,1.3-4.2,1.6c-1.2-1.3-2.9-2.1-4.8-2.1c-3.6,0-6.6,2.9-6.6,6.6c0,0.5,0.1,1,0.2,1.5c-5.5-0.3-10.3-2.9-13.5-6.9
					c-0.6,1-0.9,2.1-0.9,3.3c0,2.3,1.2,4.3,2.9,5.5c-1.1,0-2.1-0.3-3-0.8c0,0,0,0.1,0,0.1c0,3.2,2.3,5.8,5.3,6.4
					c-0.6,0.1-1.1,0.2-1.7,0.2c-0.4,0-0.8,0-1.2-0.1c0.8,2.6,3.3,4.5,6.1,4.6c-2.2,1.8-5.1,2.8-8.2,2.8c-0.5,0-1.1,0-1.6-0.1
					c2.9,1.9,6.4,2.9,10.1,2.9c12.1,0,18.7-10,18.7-18.7c0-0.3,0-0.6,0-0.8C43.2,291.4,44.4,290.3,45.2,289z"/>
			</g>
		</g>
		<g id="Symbol_3_" display="inline">
			<g>
				<path fill-rule="evenodd" clip-rule="evenodd" fill="#FFFFFF" d="M43.2,287c-1.2,0.5-2.4,0.9-3.8,1c1.4-0.8,2.4-2.1,2.9-3.6
					c-1.3,0.8-2.7,1.3-4.2,1.6c-1.2-1.3-2.9-2.1-4.8-2.1c-3.6,0-6.6,2.9-6.6,6.6c0,0.5,0.1,1,0.2,1.5c-5.5-0.3-10.3-2.9-13.5-6.9
					c-0.6,1-0.9,2.1-0.9,3.3c0,2.3,1.2,4.3,2.9,5.5c-1.1,0-2.1-0.3-3-0.8c0,0,0,0.1,0,0.1c0,3.2,2.3,5.8,5.3,6.4
					c-0.6,0.1-1.1,0.2-1.7,0.2c-0.4,0-0.8,0-1.2-0.1c0.8,2.6,3.3,4.5,6.1,4.6c-2.2,1.8-5.1,2.8-8.2,2.8c-0.5,0-1.1,0-1.6-0.1
					c2.9,1.9,6.4,2.9,10.1,2.9c12.1,0,18.7-10,18.7-18.7c0-0.3,0-0.6,0-0.8C41.2,289.4,42.4,288.3,43.2,287z"/>
			</g>
		</g>
	</g>
	<g id="FB">
		<g>
			<g id="Shadow_8_" opacity="0.302">
				<g>
					<path fill-rule="evenodd" clip-rule="evenodd" d="M57.3,1.9H5c-2.8,0-5,2.2-5,4.9v50.7c0,2.7,2.3,4.9,5,4.9h52.3
						c2.8,0,5-2.2,5-4.9V6.8C62.4,4.1,60.1,1.9,57.3,1.9z"/>
				</g>
			</g>
			<g id="Background_3_">
				<g>
					<path fill-rule="evenodd" clip-rule="evenodd" fill="#5A7CC3" d="M57.3,0H5C2.3,0,0,2.2,0,4.9v50.7c0,2.7,2.3,4.9,5,4.9h52.3
						c2.8,0,5-2.2,5-4.9V4.9C62.4,2.2,60.1,0,57.3,0z"/>
				</g>
			</g>
			<g id="Symbol_shadow" opacity="0.149">
				<g>
					<path fill-rule="evenodd" clip-rule="evenodd" d="M36.8,22.9c0.7,0,2.1,0,3.4,0c0-0.7,0-3.1,0-5.3c-1.8,0-3.8,0-4.6,0
						c-6.6,0-6.4,5.1-6.4,5.9s0,4.2,0,4.2h-3v5.1h3v14h6.3v-14h4.2c0,0,0.4-2.5,0.6-5.1c-0.5,0-4.8,0-4.8,0s0-3,0-3.5
						C35.5,23.6,36.2,22.9,36.8,22.9z"/>
				</g>
			</g>
			<g id="Symbol">
				<g>
					<path fill-rule="evenodd" clip-rule="evenodd" fill="#FFFFFF" d="M34.8,20.9h3.4v-5.3h-4.6c-6.6,0-6.4,5.1-6.4,5.9
						c0,0.8,0,4.2,0,4.2h-3v5.1h3v14h6.3v-14h4.2c0,0,0.4-2.5,0.6-5.1c-0.5,0-4.8,0-4.8,0s0-3,0-3.5C33.5,21.6,34.1,20.9,34.8,20.9z
						"/>
				</g>
			</g>
		</g>
	</g>
</g>
</svg>
