<?xml version="1.0" encoding="utf-8"?>
<!-- Generator: Adobe Illustrator 15.1.0, SVG Export Plug-In . SVG Version: 6.00 Build 0)  -->
<!DOCTYPE svg PUBLIC "-//W3C//DTD SVG 1.1//EN" "http://www.w3.org/Graphics/SVG/1.1/DTD/svg11.dtd">
<svg version="1.1" xmlns="http://www.w3.org/2000/svg" xmlns:xlink="http://www.w3.org/1999/xlink" x="0px" y="0px" width="73.7px"
	 height="59.5px" viewBox="0 0 73.7 59.5" enable-background="new 0 0 73.7 59.5" xml:space="preserve">
<g id="Layer_1" display="none">
</g>
<g id="Socialni_Media_x2F_Foto_x2F_Profil">
	<g id="Menu_1_">
		<rect x="156" y="93" fill="#9AB26B" width="62" height="49"/>
		<g>
			<g opacity="0.45">
				<rect x="95" y="93" fill="#FFFFFF" width="62" height="49"/>
			</g>
			<g>
				<rect x="94" y="93" fill="#9AB26B" width="62" height="49"/>
			</g>
		</g>
		<g>
			<g opacity="0.45">
				<rect x="33" y="93" fill="#FFFFFF" width="62" height="49"/>
			</g>
			<g>
				<rect x="32" y="93" fill="#9AB26B" width="62" height="49"/>
			</g>
		</g>
		<g>
			<g opacity="0.45">
				<rect x="-29" y="93" fill="#FFFFFF" width="62" height="49"/>
			</g>
			<g>
				<rect x="-30" y="93" fill="#9AB26B" width="62" height="49"/>
			</g>
		</g>
		<g>
			<g opacity="0.45">
				<rect x="-91" y="93" fill="#FFFFFF" width="62" height="49"/>
			</g>
			<g>
				<rect x="-92" y="93" fill="#9AB26B" width="62" height="49"/>
			</g>
		</g>
		<g id="Nastavení">
			<g id="Cog_1_">
				<g>
					<path fill-rule="evenodd" clip-rule="evenodd" fill="#C6DAAA" d="M187.5,114.4c-2.3,0-4.1,1.8-4.1,4.1s1.8,4.1,4.1,4.1
						s4.1-1.8,4.1-4.1S189.7,114.4,187.5,114.4z M200.8,115.6l-2.8-0.2c-0.2-0.8-0.6-1.7-1-2.4l1.9-2.1c0.5-0.5,0.5-1.4,0-2l-2-2
						c-0.5-0.5-1.4-0.5-2,0l-2.1,1.9c-0.7-0.4-1.5-0.8-2.4-1l-0.2-2.8c0-0.8-0.6-1.4-1.4-1.4H186c-0.8,0-1.4,0.6-1.4,1.4l-0.2,2.8
						c-0.8,0.2-1.7,0.6-2.4,1L180,107c-0.5-0.5-1.4-0.5-2,0l-2,2c-0.5,0.5-0.5,1.4,0,2l1.9,2.1c-0.4,0.7-0.8,1.6-1,2.4l-2.8,0.2
						c-0.8,0-1.4,0.6-1.4,1.4v2.9c0,0.8,0.6,1.4,1.4,1.4l2.8,0.2c0.2,0.8,0.6,1.7,1,2.4l-1.9,2.1c-0.5,0.5-0.5,1.4,0,2l2,2
						c0.5,0.5,1.4,0.5,2,0l2.1-1.9c0.7,0.4,1.5,0.8,2.4,1l0.2,2.8c0,0.8,0.6,1.4,1.4,1.4h2.9c0.8,0,1.4-0.6,1.4-1.4l0.2-2.8
						c0.8-0.2,1.7-0.6,2.4-1l2.1,1.9c0.5,0.5,1.4,0.5,2,0l2-2c0.5-0.5,0.5-1.4,0-2l-1.9-2.1c0.4-0.7,0.8-1.6,1-2.4l2.8-0.2
						c0.8,0,1.4-0.6,1.4-1.4V117C202.2,116.3,201.6,115.6,200.8,115.6z M187.5,125.1c-3.6,0-6.6-2.9-6.6-6.6s3-6.6,6.6-6.6
						c3.6,0,6.6,3,6.6,6.6S191.1,125.1,187.5,125.1z"/>
				</g>
			</g>
			<g id="Circle_1_">
				<g>
					<circle fill-rule="evenodd" clip-rule="evenodd" fill="#A0C171" cx="187.5" cy="118.5" r="2.4"/>
				</g>
			</g>
		</g>
		<g id="Turistický_deník">
			<g id="Main_BG_1_4_">
				<g>
					<path fill-rule="evenodd" clip-rule="evenodd" fill="#C6DAAA" d="M143.9,103.7h-17.8V133h17.8c1.3,0,2.4-1.1,2.4-2.4v-24.5
						C146.3,104.8,145.2,103.7,143.9,103.7z"/>
				</g>
			</g>
			<g id="Main_BG_2_2_" opacity="0.1882">
				<g>
					<path fill-rule="evenodd" clip-rule="evenodd" d="M124.6,103.7c-1.1,0-1.9,0.9-1.9,1.9v25.4c0,1.1,0.9,1.9,1.9,1.9h1.9v-29.3
						H124.6z"/>
				</g>
			</g>
			<g id="Main_BG_1_1_">
				<g>
					<path fill-rule="evenodd" clip-rule="evenodd" fill="#C6DAAA" d="M108.1,103.7c-1.3,0-2.4,1.1-2.4,2.4v24.5
						c0,1.3,1.1,2.4,2.4,2.4h17.8v-29.3H108.1z"/>
				</g>
			</g>
			<g id="Image_2_" opacity="0.1882">
				<g>
					<path fill-rule="evenodd" clip-rule="evenodd" d="M120.7,112.9h-9.9c-0.7,0-1.3,0.6-1.3,1.3v9.2c0,0.7,0.6,1.3,1.3,1.3h9.9
						c0.7,0,1.3-0.6,1.3-1.3v-9.2C122.1,113.5,121.5,112.9,120.7,112.9z"/>
				</g>
			</g>
			<g id="Head_2_">
				<g>
					<path fill-rule="evenodd" clip-rule="evenodd" fill="#FFFFFF" d="M115.7,121c1.2,0,2.2-1.2,2.2-2.7s-1-2.7-2.2-2.7
						c-1.2,0-2.2,1.2-2.2,2.7S114.5,121,115.7,121z M119.6,123.5c0,0-0.4-1.3-1-2c-0.6-0.7-1.3,0-1.3,0s-0.3,0.6-1.3,0.7h-0.3
						c-1,0-1.3-0.7-1.3-0.7s-0.7-0.7-1.3,0c-0.6,0.7-1,2-1,2l-0.3,0.7c0,0.6,0.6,0.7,0.6,0.7h7c0,0,0.6,0,0.6-0.7L119.6,123.5z"/>
				</g>
			</g>
			<g id="Text_2_">
				<g>
					<path fill-rule="evenodd" clip-rule="evenodd" fill="#FFFFFF" d="M129.8,114.8v0.9h12.7v-0.9H129.8z M129.8,118.1h12.7v-0.9
						h-12.7V118.1z M129.8,120.4h12.7v-0.9h-12.7V120.4z M129.8,122.8h12.7v-0.9h-12.7V122.8z"/>
				</g>
			</g>
		</g>
		<g id="Zprávy">
			<g id="Cloud_back_1_">
				<g>
					<path fill-rule="evenodd" clip-rule="evenodd" fill="#B3CD8D" d="M82,103.7H54.5c-1.9,0-3.4,1.5-3.4,3.4V125
						c0,1.9,1.5,3.4,3.4,3.4H82c1.9,0,3.4-1.5,3.4-3.4v-17.8C85.4,105.3,83.8,103.7,82,103.7z"/>
				</g>
			</g>
			<g id="Shadow_4_" opacity="0.2">
				<g>
					<path fill-rule="evenodd" clip-rule="evenodd" d="M76.1,109.6l-10.9,18.8H82c1.9,0,3.4-1.5,3.4-3.4v-10L76.1,109.6z"/>
				</g>
			</g>
			<g id="Cloud_front_1_">
				<g>
					<path fill-rule="evenodd" clip-rule="evenodd" fill="#C6DAAA" d="M73.7,108.5H46.3c-1.9,0-3.4,1.5-3.4,3.4v17.8
						c0,1.9,1.5,3.4,3.4,3.4h2.1v6.9l10.1-6.9h15.3c1.9,0,3.4-1.5,3.4-3.4v-17.8C77.2,110.1,75.6,108.5,73.7,108.5z"/>
				</g>
			</g>
			<g id="Text_6_">
				<g>
					<path fill-rule="evenodd" clip-rule="evenodd" fill="#FFFFFF" d="M50.4,114.7v1.4h18.5v-1.4H50.4z M50.4,119.5h18.5v-1.4H50.4
						V119.5z M50.4,122.9h18.5v-1.4H50.4V122.9z M50.4,126.3h18.5V125H50.4V126.3z"/>
				</g>
			</g>
		</g>
		<g id="Fotogalerie">
			<g>
				<g id="Body_2_">
					<g>
						<path fill-rule="evenodd" clip-rule="evenodd" fill="#C6DAAA" d="M67.8,9.3H5.9C2.7,9.3,0,11.9,0,15.2v2.3v2.3v2.3v2.3v19.8
							v2.3V49v2.3v2.3c0,3.2,2.7,5.8,5.9,5.8h61.8c3.3,0,5.9-2.6,5.9-5.8v-2.3V49v-2.3v-2.3V24.5v-2.3v-2.3v-2.3v-2.3
							C73.7,11.9,71,9.3,67.8,9.3z"/>
					</g>
				</g>
				<g id="Body_2_2_">
					<g>
						<path fill-rule="evenodd" clip-rule="evenodd" fill="#ECF3E3" d="M56,5.2C55.2,2.3,51.8,0,48.5,0H24.9c-3.3,0-6.6,2.3-7.5,5.2
							l-1.3,4.1h41.1L56,5.2z"/>
					</g>
				</g>
				<g id="Rounded_Rectangle_2_2_">
					<g>
						<path fill-rule="evenodd" clip-rule="evenodd" fill="#ADBF92" d="M40.4,2.3h-7.1c-1.3,0-2.4,1-2.4,2.3C30.9,6,32,7,33.3,7h7.1
							c1.3,0,2.4-1,2.4-2.3C42.8,3.4,41.7,2.3,40.4,2.3z"/>
					</g>
				</g>
				<g id="Shadow_2_" opacity="9.019600e-002">
					<g>
						<ellipse fill-rule="evenodd" clip-rule="evenodd" cx="36.9" cy="42" rx="14.3" ry="14"/>
					</g>
				</g>
				<g id="Ellipse_1_2_">
					<g>
						<ellipse fill-rule="evenodd" clip-rule="evenodd" fill="#B3CD8D" cx="36.9" cy="35" rx="14.3" ry="14"/>
					</g>
				</g>
				<g id="Ellipse_1_copy_2_">
					<g>
						<ellipse fill-rule="evenodd" clip-rule="evenodd" fill="#FFFFFF" cx="36.9" cy="35" rx="10.7" ry="10.5"/>
					</g>
				</g>
				<g id="Ellipse_1_copy_2_2_">
					<g>
						<ellipse fill-rule="evenodd" clip-rule="evenodd" fill="#B1C6CB" cx="36.9" cy="35" rx="8.3" ry="8.2"/>
					</g>
				</g>
				<g id="Ellipse_1_copy_3_2_">
					<g>
						<ellipse fill-rule="evenodd" clip-rule="evenodd" fill="#C0D9D8" cx="36.9" cy="35" rx="4.8" ry="4.7"/>
					</g>
				</g>
				<g id="Shining_2_" opacity="0.502">
					<g>
						<ellipse fill-rule="evenodd" clip-rule="evenodd" fill="#FFFFFF" cx="33.9" cy="30.9" rx="5.4" ry="5.3"/>
					</g>
				</g>
				<g id="Led_2_">
					<g>
						<ellipse fill-rule="evenodd" clip-rule="evenodd" fill="#FFFFFF" cx="63" cy="19.8" rx="3.6" ry="3.5"/>
					</g>
				</g>
			</g>
		</g>
		<g id="Mé_akce" display="none">
			<g display="inline">
				<g opacity="0.4">
					<polygon fill-rule="evenodd" clip-rule="evenodd" points="17.4,49.9 0,59.4 0,59.5 20.7,57.2 37.4,59.4 33.8,53.5 					"/>
					<polygon fill-rule="evenodd" clip-rule="evenodd" points="70.1,53.5 55.1,49.9 37.4,59.4 55.1,57.2 73.7,59.4 					"/>
				</g>
				<g id="Main_BG_1_">
					<g>
						<path fill-rule="evenodd" clip-rule="evenodd" fill="#FFFFFF" d="M6.4,19.7L0,59.5l20.7-6.1L20,16.6L6.4,19.7z M67.8,19.7
							L55,16.6l-17.8,4.3L20,16.6l0.1,3.5l0.6,33.4l16.7,5.9l17.7-5.9l18.6,5.9L67.8,19.7z"/>
					</g>
				</g>
				<polygon fill-rule="evenodd" clip-rule="evenodd" fill="#C6DAAA" points="65.6,21.7 55,19.2 37.3,23 20,19.2 9.2,21.7 4.1,55.4 
					20.7,51 21.4,51 21.4,51 20.7,51 37.4,56.4 55.1,51.3 70.7,55.4 				"/>
				<g id="Shadows_2_" opacity="0.1882">
					<g>
						<path fill-rule="evenodd" clip-rule="evenodd" d="M20,16.6l0.1,3.5l0.6,33.4l16.7,5.9l-0.2-38.5L20,16.6z M67.8,19.7L55,16.6
							l0,36.9l18.6,5.9L67.8,19.7z"/>
					</g>
				</g>
				<g id="Pin_2_">
					<g>
						<path fill-rule="evenodd" clip-rule="evenodd" fill="#ECF3E3" d="M37.7,0c-7.1,0-12.9,6.2-12.9,13.9
							c0,7.7,12.9,23.1,12.9,23.1s12.9-15.5,12.9-23.1C50.6,6.2,44.8,0,37.7,0z M37.7,19.7c-3.6,0-6.4-3.1-6.4-6.9
							c0-3.8,2.9-6.9,6.4-6.9c3.6,0,6.4,3.1,6.4,6.9C44.1,16.5,41.3,19.7,37.7,19.7z"/>
					</g>
				</g>
			</g>
		</g>
	</g>
</g>
</svg>
