<?xml version="1.0" encoding="utf-8"?>
<!-- Generator: Adobe Illustrator 15.1.0, SVG Export Plug-In . SVG Version: 6.00 Build 0)  -->
<!DOCTYPE svg PUBLIC "-//W3C//DTD SVG 1.1//EN" "http://www.w3.org/Graphics/SVG/1.1/DTD/svg11.dtd">
<svg version="1.1" xmlns="http://www.w3.org/2000/svg" xmlns:xlink="http://www.w3.org/1999/xlink" x="0px" y="0px" width="73.7px"
	 height="59.5px" viewBox="0 0 73.7 59.5" enable-background="new 0 0 73.7 59.5" xml:space="preserve">
<g id="Layer_1" display="none">
</g>
<g id="Socialni_Media_x2F_Foto_x2F_Profil">
	<g id="Menu_1_">
		<rect x="156" y="93" fill="#9AB26B" width="62" height="49"/>
		<g>
			<g opacity="0.45">
				<rect x="95" y="93" fill="#FFFFFF" width="62" height="49"/>
			</g>
			<g>
				<rect x="94" y="93" fill="#9AB26B" width="62" height="49"/>
			</g>
		</g>
		<g>
			<g opacity="0.45">
				<rect x="33" y="93" fill="#FFFFFF" width="62" height="49"/>
			</g>
			<g>
				<rect x="32" y="93" fill="#9AB26B" width="62" height="49"/>
			</g>
		</g>
		<g>
			<g opacity="0.45">
				<rect x="-29" y="93" fill="#FFFFFF" width="62" height="49"/>
			</g>
			<g>
				<rect x="-30" y="93" fill="#9AB26B" width="62" height="49"/>
			</g>
		</g>
		<g>
			<g opacity="0.45">
				<rect x="-91" y="93" fill="#FFFFFF" width="62" height="49"/>
			</g>
			<g>
				<rect x="-92" y="93" fill="#9AB26B" width="62" height="49"/>
			</g>
		</g>
		<g id="Nastavení">
			<g>
				<g id="Cog_1_">
					<g>
						<path fill-rule="evenodd" clip-rule="evenodd" fill="#C6DAAA" d="M36.9,21.5c-5.6,0-10.2,3.7-10.2,8.2S31.2,38,36.9,38
							c5.6,0,10.2-3.7,10.2-8.2S42.5,21.5,36.9,21.5z M70.3,24.1l-7-0.4c-0.6-1.7-1.4-3.3-2.5-4.8l4.7-4.2c1.3-1.1,1.3-2.8,0-3.9
							l-5.1-4.1c-1.3-1.1-3.5-1.1-4.9,0l-5.1,3.8c-1.9-0.9-3.9-1.5-6-2l-0.4-5.6c0-1.5-1.5-2.8-3.4-2.8h-7.2c-1.9,0-3.5,1.2-3.5,2.8
							l-0.4,5.6c-2.1,0.5-4.1,1.2-6,2l-5.1-3.8c-1.3-1.1-3.5-1.1-4.9,0l-5.1,4.1c-1.3,1.1-1.3,2.8,0,3.9l4.7,4.2
							c-1.1,1.5-1.9,3.1-2.5,4.8l-7,0.4c-1.9,0-3.5,1.2-3.5,2.8v5.8c0,1.5,1.5,2.8,3.5,2.8l7,0.4c0.6,1.7,1.4,3.3,2.5,4.8l-4.7,4.2
							c-1.3,1.1-1.3,2.9,0,3.9l5.1,4.1c1.3,1.1,3.5,1.1,4.9,0l5.1-3.8c1.9,0.9,3.9,1.5,6,2l0.4,5.6c0,1.5,1.5,2.8,3.5,2.8h7.2
							c1.9,0,3.4-1.2,3.4-2.8l0.4-5.6c2.1-0.5,4.1-1.2,6-2l5.1,3.8c1.3,1.1,3.5,1.1,4.9,0l5.1-4.1c1.3-1.1,1.3-2.8,0-3.9l-4.7-4.2
							c1.1-1.5,1.9-3.1,2.5-4.8l7-0.4c1.9,0,3.5-1.2,3.5-2.8v-5.8C73.7,25.3,72.2,24.1,70.3,24.1z M36.9,43.1
							c-9.1,0-16.5-6-16.5-13.3s7.4-13.3,16.5-13.3c9.1,0,16.5,6,16.5,13.3S45.9,43.1,36.9,43.1z"/>
					</g>
				</g>
				<g id="Circle_1_">
					<g>
						<ellipse fill-rule="evenodd" clip-rule="evenodd" fill="#A0C171" cx="36.9" cy="29.8" rx="5.9" ry="4.8"/>
					</g>
				</g>
			</g>
		</g>
		<g id="Turistický_deník" display="none">
			<g display="inline">
				<g id="Main_BG_1_4_">
					<g>
						<path fill-rule="evenodd" clip-rule="evenodd" fill="#C6DAAA" d="M69.3,0H51H39.7H37v59.5h2.6H51h18.3c2.4,0,4.4-2.2,4.4-4.9
							V4.9C73.7,2.2,71.7,0,69.3,0z"/>
					</g>
				</g>
				<g id="Main_BG_2_2_" opacity="0.1882">
					<g>
						<path fill-rule="evenodd" clip-rule="evenodd" d="M36.9,0H36h-1.7c-1.9,0-3.5,1.7-3.5,3.9v51.7c0,2.2,1.6,3.9,3.5,3.9H36h0.9
							h0.9V0H36.9z"/>
					</g>
				</g>
				<g id="Main_BG_1_1_">
					<g>
						<path fill-rule="evenodd" clip-rule="evenodd" fill="#C6DAAA" d="M4.4,0C2,0,0,2.2,0,4.9v49.8c0,2.7,2,4.9,4.4,4.9h32.3V0H4.4
							z"/>
					</g>
				</g>
				<g id="Image_2_" opacity="0.1882">
					<g>
						<path fill-rule="evenodd" clip-rule="evenodd" d="M27.3,18.8H9.4C8,18.8,7,20,7,21.4v18.7c0,1.5,1.1,2.7,2.4,2.7h17.9
							c1.3,0,2.4-1.2,2.4-2.7V21.4C29.7,20,28.6,18.8,27.3,18.8z"/>
					</g>
				</g>
				<g id="Head_2_">
					<g>
						<path fill-rule="evenodd" clip-rule="evenodd" fill="#FFFFFF" d="M18.2,35.1c2.3,0,4.1-2.4,4.1-5.5s-1.8-5.5-4.1-5.5
							c-2.2,0-4.1,2.4-4.1,5.5S16,35.1,18.2,35.1z M25.3,40.2c0,0-0.7-2.6-1.8-4c-1.1-1.4-2.4,0-2.4,0s-0.6,1.3-2.4,1.3H18
							c-1.9,0-2.4-1.3-2.4-1.3s-1.3-1.4-2.4,0c-1.1,1.4-1.8,4-1.8,4l-0.6,1.3c0,1.3,1.2,1.3,1.2,1.3h12.7c0,0,1.2,0,1.2-1.3
							L25.3,40.2z"/>
					</g>
				</g>
				<g id="Text_2_">
					<g>
						<path fill-rule="evenodd" clip-rule="evenodd" fill="#FFFFFF" d="M43.8,22.5v1.9h23.1v-1.9H43.8z M43.8,29.2h23.1v-1.9H43.8
							V29.2z M43.8,33.9h23.1V32H43.8V33.9z M43.8,38.7h23.1v-1.9H43.8V38.7z"/>
					</g>
				</g>
			</g>
		</g>
		<g id="Zprávy" display="none">
			<g display="inline">
				<g id="Cloud_back_1_">
					<g>
						<path fill-rule="evenodd" clip-rule="evenodd" fill="#B3CD8D" d="M67.8,0H20.2c-3.3,0-5.9,2.5-5.9,5.6v29.2
							c0,3.1,2.7,5.6,5.9,5.6h47.5c3.3,0,5.9-2.5,5.9-5.6V5.6C73.7,2.5,71,0,67.8,0z"/>
					</g>
				</g>
				<g id="Shadow_4_" opacity="0.2">
					<g>
						<path fill-rule="evenodd" clip-rule="evenodd" d="M57.6,9.6L38.7,40.4h29c3.3,0,5.9-2.5,5.9-5.6V18.4L57.6,9.6z"/>
					</g>
				</g>
				<g id="Cloud_front_1_">
					<g>
						<path fill-rule="evenodd" clip-rule="evenodd" fill="#C6DAAA" d="M53.5,7.9H5.9C2.7,7.9,0,10.4,0,13.5v29.2
							c0,3.1,2.7,5.6,5.9,5.6h3.6v11.2L27,48.3h26.5c3.3,0,5.9-2.5,5.9-5.6V13.5C59.4,10.4,56.8,7.9,53.5,7.9z"/>
					</g>
				</g>
				<g id="Text_6_">
					<g>
						<path fill-rule="evenodd" clip-rule="evenodd" fill="#FFFFFF" d="M13.1,18v2.2h32.1V18H13.1z M13.1,25.8h32.1v-2.2H13.1V25.8z
							 M13.1,31.4h32.1v-2.2H13.1V31.4z M13.1,37.1h32.1v-2.2H13.1V37.1z"/>
					</g>
				</g>
			</g>
		</g>
		<g id="Fotogalerie" display="none">
			<g display="inline">
				<g id="Body_2_">
					<g>
						<path fill-rule="evenodd" clip-rule="evenodd" fill="#C6DAAA" d="M67.8,9.3H5.9C2.7,9.3,0,11.9,0,15.2v2.3v2.3v2.3v2.3v19.8
							v2.3V49v2.3v2.3c0,3.2,2.7,5.8,5.9,5.8h61.8c3.3,0,5.9-2.6,5.9-5.8v-2.3V49v-2.3v-2.3V24.5v-2.3v-2.3v-2.3v-2.3
							C73.7,11.9,71,9.3,67.8,9.3z"/>
					</g>
				</g>
				<g id="Body_2_2_">
					<g>
						<path fill-rule="evenodd" clip-rule="evenodd" fill="#ECF3E3" d="M56,5.2C55.2,2.3,51.8,0,48.5,0H24.9c-3.3,0-6.6,2.3-7.5,5.2
							l-1.3,4.1h41.1L56,5.2z"/>
					</g>
				</g>
				<g id="Rounded_Rectangle_2_2_">
					<g>
						<path fill-rule="evenodd" clip-rule="evenodd" fill="#ADBF92" d="M40.4,2.3h-7.1c-1.3,0-2.4,1-2.4,2.3C30.9,6,32,7,33.3,7h7.1
							c1.3,0,2.4-1,2.4-2.3C42.8,3.4,41.7,2.3,40.4,2.3z"/>
					</g>
				</g>
				<g id="Shadow_2_" opacity="9.019600e-002">
					<g>
						<ellipse fill-rule="evenodd" clip-rule="evenodd" cx="36.9" cy="42" rx="14.3" ry="14"/>
					</g>
				</g>
				<g id="Ellipse_1_2_">
					<g>
						<ellipse fill-rule="evenodd" clip-rule="evenodd" fill="#B3CD8D" cx="36.9" cy="35" rx="14.3" ry="14"/>
					</g>
				</g>
				<g id="Ellipse_1_copy_2_">
					<g>
						<ellipse fill-rule="evenodd" clip-rule="evenodd" fill="#FFFFFF" cx="36.9" cy="35" rx="10.7" ry="10.5"/>
					</g>
				</g>
				<g id="Ellipse_1_copy_2_2_">
					<g>
						<ellipse fill-rule="evenodd" clip-rule="evenodd" fill="#B1C6CB" cx="36.9" cy="35" rx="8.3" ry="8.2"/>
					</g>
				</g>
				<g id="Ellipse_1_copy_3_2_">
					<g>
						<ellipse fill-rule="evenodd" clip-rule="evenodd" fill="#C0D9D8" cx="36.9" cy="35" rx="4.8" ry="4.7"/>
					</g>
				</g>
				<g id="Shining_2_" opacity="0.502">
					<g>
						<ellipse fill-rule="evenodd" clip-rule="evenodd" fill="#FFFFFF" cx="33.9" cy="30.9" rx="5.4" ry="5.3"/>
					</g>
				</g>
				<g id="Led_2_">
					<g>
						<ellipse fill-rule="evenodd" clip-rule="evenodd" fill="#FFFFFF" cx="63" cy="19.8" rx="3.6" ry="3.5"/>
					</g>
				</g>
			</g>
		</g>
		<g id="Mé_akce" display="none">
			<g display="inline">
				<g opacity="0.4">
					<polygon fill-rule="evenodd" clip-rule="evenodd" points="17.4,49.9 0,59.4 0,59.5 20.7,57.2 37.4,59.4 33.8,53.5 					"/>
					<polygon fill-rule="evenodd" clip-rule="evenodd" points="70.1,53.5 55.1,49.9 37.4,59.4 55.1,57.2 73.7,59.4 					"/>
				</g>
				<g id="Main_BG_1_">
					<g>
						<path fill-rule="evenodd" clip-rule="evenodd" fill="#FFFFFF" d="M6.4,19.7L0,59.5l20.7-6.1L20,16.6L6.4,19.7z M67.8,19.7
							L55,16.6l-17.8,4.3L20,16.6l0.1,3.5l0.6,33.4l16.7,5.9l17.7-5.9l18.6,5.9L67.8,19.7z"/>
					</g>
				</g>
				<polygon fill-rule="evenodd" clip-rule="evenodd" fill="#C6DAAA" points="65.6,21.7 55,19.2 37.3,23 20,19.2 9.2,21.7 4.1,55.4 
					20.7,51 21.4,51 21.4,51 20.7,51 37.4,56.4 55.1,51.3 70.7,55.4 				"/>
				<g id="Shadows_2_" opacity="0.1882">
					<g>
						<path fill-rule="evenodd" clip-rule="evenodd" d="M20,16.6l0.1,3.5l0.6,33.4l16.7,5.9l-0.2-38.5L20,16.6z M67.8,19.7L55,16.6
							l0,36.9l18.6,5.9L67.8,19.7z"/>
					</g>
				</g>
				<g id="Pin_2_">
					<g>
						<path fill-rule="evenodd" clip-rule="evenodd" fill="#ECF3E3" d="M37.7,0c-7.1,0-12.9,6.2-12.9,13.9
							c0,7.7,12.9,23.1,12.9,23.1s12.9-15.5,12.9-23.1C50.6,6.2,44.8,0,37.7,0z M37.7,19.7c-3.6,0-6.4-3.1-6.4-6.9
							c0-3.8,2.9-6.9,6.4-6.9c3.6,0,6.4,3.1,6.4,6.9C44.1,16.5,41.3,19.7,37.7,19.7z"/>
					</g>
				</g>
			</g>
		</g>
	</g>
</g>
</svg>
