<?xml version="1.0" encoding="utf-8"?>
<!-- Generator: Adobe Illustrator 15.1.0, SVG Export Plug-In . SVG Version: 6.00 Build 0)  -->
<!DOCTYPE svg PUBLIC "-//W3C//DTD SVG 1.1//EN" "http://www.w3.org/Graphics/SVG/1.1/DTD/svg11.dtd">
<svg version="1.1" id="Socialni_Media_x2F_Foto_x2F_Profil"
	 xmlns="http://www.w3.org/2000/svg" xmlns:xlink="http://www.w3.org/1999/xlink" x="0px" y="0px" width="65px" height="59.5px"
	 viewBox="0 0 65 59.5" enable-background="new 0 0 65 59.5" xml:space="preserve">
<g id="Turistický_deník">
	<path fill-rule="evenodd" clip-rule="evenodd" fill="#C6DAAA" d="M65,56c0,1.1-0.9,2-2,2H2c-1.1,0-2-0.9-2-2V3c0-1.1,0.9-2,2-2h61
		c1.1,0,2,0.9,2,2V56z"/>
	<g id="Image_1_" opacity="0.1882">
		<g>
			<path fill-rule="evenodd" clip-rule="evenodd" d="M50.1,8.6H14.9c-2.6,0-4.7,2.1-4.7,4.7v32.8c0,2.6,2.1,4.7,4.7,4.7h35.2
				c2.6,0,4.7-2.1,4.7-4.7V13.3C54.8,10.7,52.7,8.6,50.1,8.6z"/>
		</g>
	</g>
	<g id="Head_1_">
		<g>
			<path fill-rule="evenodd" clip-rule="evenodd" fill="#FFFFFF" d="M32.2,32.5c4.4,0,8-4.3,8-9.6c0-5.3-3.6-9.6-8-9.6
				c-4.4,0-8,4.3-8,9.6C24.3,28.2,27.8,32.5,32.2,32.5z M46.1,41.4c0,0-1.5-4.6-3.6-7c-2.1-2.4-4.6,0-4.6,0s-1.1,2.3-4.8,2.3h-1.2
				c-3.7-0.1-4.8-2.3-4.8-2.3s-2.5-2.4-4.6,0c-2.1,2.4-3.6,7-3.6,7l-1.1,2.3c0,2.3,2.3,2.3,2.3,2.3h24.9c0,0,2.3-0.1,2.3-2.3
				L46.1,41.4z"/>
		</g>
	</g>
</g>
</svg>
